<?xml version="1.0" encoding="UTF-8" standalone="no"?>
<!DOCTYPE svg PUBLIC "-//W3C//DTD SVG 1.1//EN" "http://www.w3.org/Graphics/SVG/1.1/DTD/svg11.dtd">
<svg width="100%" height="100%" viewBox="0 0 2000 2000" version="1.1" xmlns="http://www.w3.org/2000/svg" xmlns:xlink="http://www.w3.org/1999/xlink" xml:space="preserve" xmlns:serif="http://www.serif.com/" style="fill-rule:evenodd;clip-rule:evenodd;stroke-linejoin:round;stroke-miterlimit:2;">
    <g transform="matrix(4.43357,0,0,4.43357,-3956.63,-4231.95)">
        <g transform="matrix(5.42956,0,0,5.42956,-1297.88,-3456.53)">
            <path d="M421.427,862.02L414.755,862.02L413.651,865.212L410.123,865.212L416.147,848.436L420.059,848.436L426.083,865.212L422.531,865.212L421.427,862.02ZM420.515,859.332L418.091,852.324L415.667,859.332L420.515,859.332Z" style="fill-rule:nonzero;"/>
            <g transform="matrix(1,0,0,1,0,-5.81581)">
                <path d="M438.691,853.644C438.691,854.54 438.479,855.38 438.055,856.164C437.631,856.948 436.967,857.58 436.063,858.06C435.159,858.54 434.019,858.78 432.643,858.78L429.835,858.78L429.835,865.212L426.475,865.212L426.475,848.46L432.643,848.46C433.939,848.46 435.043,848.684 435.955,849.132C436.867,849.58 437.551,850.196 438.007,850.98C438.463,851.764 438.691,852.652 438.691,853.644ZM432.499,856.068C433.427,856.068 434.115,855.856 434.563,855.432C435.011,855.008 435.235,854.412 435.235,853.644C435.235,852.012 434.323,851.196 432.499,851.196L429.835,851.196L429.835,856.068L432.499,856.068Z" style="fill-rule:nonzero;"/>
            </g>
        </g>
        <g transform="matrix(6.12323e-17,1,-1,6.12323e-17,2354.76,-31.7885)">
            <g transform="matrix(10.8881,0,0,10.8881,-6382.52,-16929.6)">
                <path d="M686.432,1673.49L686.432,1669.03L681.932,1669.03L681.932,1665.94L686.432,1665.94L686.432,1661.48L689.432,1661.48L689.432,1665.94L693.944,1665.94L693.944,1669.03L689.432,1669.03L689.432,1673.49L686.432,1673.49Z" style="fill-rule:nonzero;"/>
            </g>
            <g transform="matrix(10.8881,0,0,10.8881,-6278.63,-17034.8)">
                <path d="M686.432,1673.49L686.432,1669.03L681.932,1669.03L681.932,1665.94L686.432,1665.94L686.432,1661.48L689.432,1661.48L689.432,1665.94L693.944,1665.94L693.944,1669.03L689.432,1669.03L689.432,1673.49L686.432,1673.49Z" style="fill-rule:nonzero;"/>
            </g>
            <g transform="matrix(10.8881,0,0,10.8881,-6174.45,-16929.6)">
                <path d="M686.432,1673.49L686.432,1669.03L681.932,1669.03L681.932,1665.94L686.432,1665.94L686.432,1661.48L689.432,1661.48L689.432,1665.94L693.944,1665.94L693.944,1669.03L689.432,1669.03L689.432,1673.49L686.432,1673.49Z" style="fill-rule:nonzero;"/>
            </g>
        </g>
    </g>
</svg>
